<svg width="347" height="234" viewBox="0 0 347 234" fill="none" xmlns="http://www.w3.org/2000/svg">
<path d="M63.3472 211.588H286.436C308.252 211.588 327.24 195.67 330.23 174.016C330.31 173.531 330.391 172.965 330.391 172.48C331.361 163.107 329.422 153.816 321.826 146.624C297.344 123.677 331.522 94.1851 326.432 73.8235C321.342 53.4619 303.485 65.1779 270.438 33.1003C237.31 1.02274 242.481 -16.8341 184.951 22.5155C138.814 54.1083 83.4664 18.9603 55.9136 32.6963C28.4416 46.4323 55.9944 87.0747 22.3816 130.868C1.21202 158.502 17.0488 183.469 31.6736 198.175C36.5216 203.023 42.2584 206.659 48.5608 209.002C53.2472 210.78 58.2568 211.588 63.3472 211.588Z" fill="#CCF2FF"/>
<path opacity="0.48" d="M326.351 73.8235C321.261 53.4619 303.404 65.1779 270.357 33.1003C247.814 11.2843 243.046 -3.98693 224.058 0.941868C239.168 6.19387 243.45 11.0419 247.652 20.8187C271.73 77.2171 221.877 133.858 255.813 159.31C274.478 173.369 235.613 193.811 200.222 211.587H286.355C308.171 211.587 327.159 195.67 330.149 174.016C330.23 173.531 330.31 172.965 330.31 172.48C331.28 163.107 329.341 153.815 321.746 146.624C297.344 123.758 331.442 94.1851 326.351 73.8235Z" fill="#ADE4F2"/>
<path d="M133.32 26.5557L91.4655 17.5061L107.06 47.8061L117.322 39.7261L121.362 46.7557L122.654 34.0701L133.32 26.5557Z" fill="#379CF7"/>
<path d="M121.523 33.4237L122.654 34.0701L121.362 46.7557L117.322 39.7261L91.4655 17.5061L121.523 33.4237Z" fill="#092B96"/>
<path d="M112.716 43.3621L121.362 46.7557L117.322 39.7261L112.716 43.3621Z" fill="#1574BC"/>
<path d="M124.27 48.21C123.866 47.806 123.543 47.4828 123.22 47.0788L123.543 46.8364C123.866 47.2404 124.27 47.5636 124.594 47.9676L124.27 48.21Z" fill="#092B96"/>
<path d="M234.32 112.123C233.27 112.042 232.219 111.961 231.25 111.881L231.33 111.477C232.381 111.557 233.35 111.719 234.401 111.719L234.32 112.123ZM228.179 111.396C227.129 111.234 226.159 111.073 225.109 110.83L225.19 110.426C226.159 110.669 227.21 110.83 228.179 110.992V111.396ZM222.119 110.184C221.15 109.941 220.099 109.618 219.13 109.295L219.21 108.891C220.18 109.214 221.15 109.457 222.2 109.78L222.119 110.184ZM216.221 108.325C215.251 108.002 214.282 107.598 213.312 107.194L213.474 106.871C214.443 107.275 215.413 107.679 216.382 108.002L216.221 108.325ZM210.484 105.901C209.514 105.497 208.626 105.013 207.737 104.528L207.898 104.205C208.787 104.689 209.757 105.174 210.646 105.578L210.484 105.901ZM204.99 102.993C204.101 102.508 203.212 101.942 202.323 101.377L202.566 101.053C203.454 101.619 204.262 102.185 205.151 102.669L204.99 102.993ZM199.818 99.599C199.01 99.0334 198.122 98.387 197.314 97.7406L197.556 97.4174C198.364 98.0638 199.172 98.7102 199.98 99.2758L199.818 99.599ZM194.97 95.7206C194.162 95.0742 193.435 94.347 192.708 93.6198L192.95 93.3774C193.678 94.1046 194.486 94.751 195.213 95.4782L194.97 95.7206ZM190.526 91.4382C189.799 90.711 189.153 89.903 188.426 89.095L188.749 88.8526C189.395 89.6606 190.122 90.3878 190.769 91.115L190.526 91.4382ZM186.486 86.7518C185.84 85.9438 185.274 85.055 184.628 84.247L184.951 84.0046C185.517 84.8126 186.163 85.7014 186.81 86.5094L186.486 86.7518ZM182.931 81.6614C182.77 81.419 182.689 81.2574 182.527 81.015C182.123 80.2878 181.719 79.6414 181.315 78.995L181.638 78.8334C182.042 79.4798 182.366 80.207 182.85 80.8534C183.012 81.0958 183.093 81.2574 183.254 81.4998L182.931 81.6614ZM179.942 76.2478C179.457 75.2782 179.053 74.3086 178.73 73.4198L179.134 73.2582C179.457 74.147 179.861 75.1166 180.346 76.0862L179.942 76.2478ZM177.76 70.4302C177.437 69.4606 177.194 68.4102 177.033 67.4406L177.437 67.3598C177.598 68.3294 177.841 69.3798 178.164 70.3494L177.76 70.4302ZM180.022 64.7742V64.3702C181.154 64.2894 182.123 64.2086 183.012 63.9662L183.093 64.3702C182.123 64.6126 181.154 64.7742 180.022 64.7742ZM176.871 64.6934C175.821 64.6126 174.77 64.451 173.801 64.2086L173.882 63.8046C174.77 63.9662 175.659 64.1278 176.629 64.2894C176.629 63.8854 176.548 63.4006 176.548 62.9966C176.548 62.431 176.548 61.7846 176.629 61.219L177.033 61.2998C176.952 61.8654 176.952 62.431 176.952 62.9966C176.952 63.4006 176.952 63.8854 177.033 64.2894H176.952L176.871 64.6934ZM170.811 63.3198C169.842 62.9158 168.872 62.431 168.064 61.8654L168.306 61.5422C169.114 62.1078 170.003 62.5926 170.973 62.9158L170.811 63.3198ZM185.921 63.0774L185.678 62.7542C185.759 62.6734 185.84 62.6734 185.921 62.5926C186.648 62.1078 187.214 61.3806 187.698 60.5726L188.022 60.7342C187.537 61.623 186.89 62.3502 186.163 62.9158C186.082 62.9966 186.002 63.0774 185.921 63.0774ZM165.64 59.8454C164.913 59.1182 164.266 58.3102 163.701 57.4214L164.024 57.179C164.59 58.0678 165.236 58.8758 165.963 59.5222L165.64 59.8454ZM177.76 58.3102L177.356 58.1486C177.76 57.0982 178.326 56.2094 178.972 55.4822L179.295 55.7246C178.649 56.4518 178.083 57.3406 177.76 58.3102ZM188.426 57.7446C188.426 57.0982 188.264 56.4518 187.941 55.8862C187.779 55.563 187.537 55.3206 187.294 55.0782L187.537 54.8358C187.779 55.0782 188.022 55.4014 188.183 55.7246C188.506 56.2902 188.668 57.0174 188.749 57.7446H188.426ZM144.309 55.0782V54.6742C145.278 54.6742 146.329 54.5934 147.379 54.5934V54.9974C146.329 55.0782 145.278 55.0782 144.309 55.0782ZM141.238 54.9974C140.188 54.9166 139.138 54.8358 138.168 54.6742L138.249 54.2702C139.218 54.4318 140.269 54.5126 141.319 54.5934L141.238 54.9974ZM162.085 54.755C161.681 53.8662 161.196 52.9774 160.792 51.927L161.115 51.7654C161.519 52.8158 161.923 53.7046 162.327 54.5934L162.085 54.755ZM150.53 54.755L150.45 54.351C151.258 54.2702 152.066 54.1894 152.874 54.0278L153.52 53.947L153.601 54.351L152.954 54.4318C152.066 54.5126 151.258 54.6742 150.53 54.755ZM181.719 54.1086L181.558 53.7046C182.527 53.3814 183.658 53.2198 184.709 53.3814L184.628 53.7854C183.739 53.7046 182.689 53.7854 181.719 54.1086ZM135.098 54.0278C134.047 53.7854 133.078 53.4622 132.108 53.0582L132.27 52.6542C133.239 52.9774 134.209 53.3006 135.178 53.543L135.098 54.0278ZM156.59 53.7854L156.51 53.3814C157.56 53.139 158.53 52.8966 159.499 52.6542L159.58 53.0582C158.691 53.3814 157.722 53.6238 156.59 53.7854ZM162.57 51.927L162.408 51.6038C163.378 51.1998 164.266 50.6342 165.074 50.0686L165.317 50.3918C164.428 50.9574 163.539 51.523 162.57 51.927ZM129.28 51.8462C128.31 51.3614 127.422 50.7958 126.614 50.2302L126.856 49.907C127.664 50.4726 128.553 51.0382 129.442 51.523L129.28 51.8462ZM159.742 49.0182C159.418 47.887 159.176 46.9174 159.014 46.0286L159.418 45.9478C159.58 46.8366 159.822 47.8062 160.146 48.9374L159.742 49.0182ZM167.579 48.291L167.256 48.0486C167.902 47.2406 168.468 46.4326 168.953 45.5438L169.276 45.7054C168.872 46.5942 168.226 47.483 167.579 48.291ZM159.176 42.8774H158.772C158.772 42.3926 158.853 41.9078 158.934 41.5038C159.014 40.9382 159.176 40.3726 159.338 39.807L159.742 39.9686C159.58 40.5342 159.418 41.019 159.338 41.5846C159.176 41.9886 159.176 42.4734 159.176 42.8774ZM170.246 42.7158L169.842 42.635C169.922 42.0694 170.003 41.5846 170.003 41.019C170.003 40.5342 169.922 40.0494 169.842 39.6454L170.246 39.5646C170.326 40.0494 170.407 40.5342 170.407 41.019C170.407 41.5846 170.407 42.1502 170.246 42.7158ZM161.196 37.3022L160.873 37.0598C161.6 36.171 162.489 35.6054 163.378 35.2014L163.539 35.5246C162.731 35.9286 161.923 36.4942 161.196 37.3022ZM168.791 36.8982C168.387 36.2518 167.902 35.8478 167.337 35.5246C167.094 35.363 166.771 35.2822 166.448 35.2014L166.529 34.7974C166.852 34.8782 167.175 34.959 167.498 35.1206C168.145 35.4438 168.63 35.9286 169.114 36.575L168.791 36.8982Z" fill="#092B96"/>
<path d="M238.037 112.204C237.875 112.204 237.714 112.204 237.552 112.204V111.8C238.037 111.8 238.602 111.8 239.087 111.8V112.204C238.764 112.204 238.36 112.204 238.037 112.204Z" fill="#092B96"/>
<path d="M241.592 41.0997C241.026 40.7765 240.461 40.5341 239.895 40.2917C249.268 46.4326 252.5 58.795 247.086 68.8142C241.673 78.8334 229.553 82.9542 219.291 78.5102C219.776 78.8334 220.341 79.1566 220.907 79.4798C231.492 85.2166 244.743 81.2574 250.399 70.6726C256.136 60.007 252.177 46.8366 241.592 41.0997Z" fill="#1D88D8"/>
<path d="M238.279 39.322C227.694 33.5852 214.443 37.5444 208.787 48.1292C203.05 58.714 207.009 71.9652 217.594 77.6212C228.179 83.358 241.43 79.3988 247.086 68.814C252.823 58.2292 248.864 45.0588 238.279 39.322ZM220.503 72.2885C212.908 68.1677 210.08 58.7141 214.12 51.1189C218.241 43.5237 227.694 40.6956 235.289 44.7356C242.885 48.8564 245.713 58.31 241.673 65.9052C237.633 73.5004 228.098 76.3285 220.503 72.2885Z" fill="#379CF7"/>
<path d="M212.1 49.9069C217.513 39.8877 229.633 35.7668 239.895 40.2916C239.41 39.9684 238.845 39.6452 238.279 39.322C227.694 33.5852 214.443 37.5444 208.787 48.1292C203.05 58.714 207.009 71.9653 217.594 77.6213C218.16 77.9445 218.725 78.1869 219.291 78.4293C209.918 72.3693 206.686 60.0069 212.1 49.9069Z" fill="#379CF7"/>
<path opacity="0.05" d="M235.128 44.5739C227.452 40.6147 217.998 43.6043 214.039 51.2803C210.08 58.9563 213.069 68.4099 220.745 72.3691C228.421 76.3283 237.875 73.3387 241.834 65.6627C245.793 57.9867 242.804 48.5331 235.128 44.5739Z" fill="white"/>
<path d="M241.673 51.038L212.342 59.8452C212.1 57.0172 212.585 54.1084 213.958 51.442L235.613 44.978C238.279 46.3516 240.299 48.5332 241.673 51.038Z" fill="url(#paint0_linear)"/>
<path d="M241.834 65.6629C241.753 65.8245 241.673 65.9861 241.592 66.0669L220.665 72.2885C217.029 70.4301 214.443 67.2789 213.15 63.7237L243.046 54.7549C244.016 58.3909 243.612 62.1885 241.834 65.6629Z" fill="url(#paint1_linear)"/>
<path d="M223.515 77.4207L216.616 73.7002L194.024 115.59L200.923 119.31L223.515 77.4207Z" fill="#379CF7"/>
<path d="M311.242 65.9861V61.8653C311.242 60.9765 310.514 60.2493 309.626 60.2493H307.525C306.555 60.2493 305.666 59.6029 305.343 58.6333C305.101 57.9061 304.778 57.1789 304.454 56.4517C304.05 55.5629 304.131 54.5125 304.858 53.7853L306.313 52.331C306.959 51.6846 306.959 50.6342 306.313 50.0686L303.404 47.1597C302.758 46.5133 301.707 46.5133 301.142 47.1597L299.687 48.6141C298.96 49.3413 297.91 49.4221 297.021 49.0181C296.294 48.6949 295.566 48.3717 294.839 48.1293C293.87 47.8061 293.223 46.9981 293.223 45.9477V43.847C293.223 42.9582 292.496 42.231 291.607 42.231H287.486C286.598 42.231 285.87 42.9582 285.87 43.847V45.9477C285.87 46.9173 285.224 47.8061 284.254 48.1293C283.527 48.3717 282.8 48.6949 282.073 49.0181C281.184 49.4221 280.134 49.3413 279.406 48.6141L277.952 47.1597C277.306 46.5133 276.255 46.5133 275.69 47.1597L272.781 50.0686C272.134 50.715 272.134 51.7654 272.781 52.331L274.235 53.7853C274.962 54.5125 275.043 55.5629 274.639 56.4517C274.316 57.1789 273.993 57.9061 273.75 58.6333C273.427 59.6029 272.619 60.2493 271.569 60.2493H269.63C268.741 60.2493 268.014 60.9765 268.014 61.8653V65.9861C268.014 66.8749 268.741 67.6021 269.63 67.6021H271.73C272.7 67.6021 273.589 68.2485 273.912 69.2181C274.154 69.9453 274.478 70.6725 274.801 71.3997C275.205 72.2885 275.124 73.3389 274.397 74.0661L272.942 75.5205C272.296 76.1669 272.296 77.2173 272.942 77.7829L275.851 80.6917C276.498 81.3381 277.548 81.3381 278.114 80.6917L279.568 79.2373C280.295 78.5101 281.346 78.4293 282.234 78.8333C282.962 79.1565 283.689 79.4797 284.416 79.7221C285.386 80.0453 286.032 80.8533 286.032 81.9037V84.0045C286.032 84.8933 286.759 85.6205 287.648 85.6205H291.769C292.658 85.6205 293.385 84.8933 293.385 84.0045V81.9037C293.385 80.9341 294.031 80.0453 295.001 79.7221C295.728 79.4797 296.455 79.1565 297.182 78.8333C298.071 78.4293 299.122 78.5101 299.849 79.2373L301.303 80.6917C301.95 81.3381 303 81.3381 303.566 80.6917L306.474 77.7829C307.121 77.1365 307.121 76.0861 306.474 75.5205L305.02 74.0661C304.293 73.3389 304.212 72.2885 304.616 71.3997C304.939 70.6725 305.262 69.9453 305.505 69.2181C305.828 68.2485 306.636 67.6021 307.686 67.6021H309.787C310.514 67.6021 311.242 66.8749 311.242 65.9861ZM289.587 68.8949C286.84 68.8949 284.658 66.7133 284.658 63.9661C284.658 61.2189 286.84 59.0373 289.587 59.0373C292.334 59.0373 294.516 61.2189 294.516 63.9661C294.516 66.6325 292.334 68.8949 289.587 68.8949Z" fill="#1D88D8"/>
<path d="M331.361 91.519V89.1758C331.361 88.691 330.957 88.287 330.472 88.287H329.26C328.694 88.287 328.21 87.883 328.048 87.3982C327.886 86.9942 327.725 86.5902 327.563 86.1862C327.321 85.7014 327.402 85.055 327.806 84.7318L328.614 83.9238C328.937 83.6006 328.937 82.9542 328.614 82.631L326.998 81.015C326.674 80.6918 326.028 80.6918 325.705 81.015L324.897 81.823C324.493 82.227 323.927 82.3078 323.362 82.0654C322.958 81.9038 322.554 81.6614 322.15 81.5806C321.584 81.419 321.261 80.9342 321.261 80.3686V79.1566C321.261 78.6718 320.857 78.2678 320.372 78.2678H318.029C317.544 78.2678 317.14 78.6718 317.14 79.1566V80.3686C317.14 80.9342 316.736 81.419 316.251 81.5806C315.847 81.7422 315.443 81.9038 315.039 82.0654C314.554 82.3078 313.908 82.227 313.585 81.823L312.777 81.015C312.454 80.6918 311.807 80.6918 311.484 81.015L309.868 82.631C309.545 82.9542 309.545 83.6006 309.868 83.9238L310.676 84.7318C311.08 85.1358 311.161 85.7014 310.918 86.1862C310.757 86.5902 310.514 86.9942 310.434 87.3982C310.272 87.9638 309.787 88.287 309.222 88.287H308.01C307.525 88.287 307.121 88.691 307.121 89.1758V91.519C307.121 92.0038 307.525 92.4078 308.01 92.4078H309.222C309.787 92.4078 310.272 92.8118 310.434 93.2966C310.595 93.7006 310.757 94.1046 310.918 94.5086C311.161 94.9934 311.08 95.6398 310.676 96.0438L309.868 96.8518C309.545 97.175 309.545 97.8214 309.868 98.1446L311.484 99.7606C311.807 100.084 312.454 100.084 312.777 99.7606L313.585 98.9526C313.989 98.5486 314.554 98.4678 315.039 98.7102C315.443 98.8718 315.847 99.1142 316.251 99.195C316.817 99.3566 317.14 99.8414 317.14 100.407V101.619C317.14 102.104 317.544 102.508 318.029 102.508H320.372C320.857 102.508 321.261 102.104 321.261 101.619V100.407C321.261 99.8414 321.665 99.3566 322.15 99.195C322.554 99.0334 322.958 98.8718 323.362 98.7102C323.846 98.4678 324.493 98.5486 324.897 98.9526L325.705 99.7606C326.028 100.084 326.674 100.084 326.998 99.7606L328.614 98.1446C328.937 97.8214 328.937 97.175 328.614 96.8518L327.806 96.0438C327.402 95.6398 327.321 95.0742 327.563 94.5086C327.725 94.1046 327.967 93.7006 328.048 93.2966C328.21 92.731 328.694 92.4078 329.26 92.4078H330.472C330.957 92.4078 331.361 92.0038 331.361 91.519ZM319.16 95.2358C316.494 95.2358 314.312 93.0542 314.312 90.3878C314.312 87.7214 316.494 85.5398 319.16 85.5398C321.826 85.5398 324.008 87.7214 324.008 90.3878C324.008 93.0542 321.826 95.2358 319.16 95.2358Z" fill="#379CF7"/>
<path d="M339.602 65.0974V62.7542C339.602 62.2694 339.198 61.8654 338.713 61.8654H337.501C336.936 61.8654 336.451 61.4614 336.289 60.9766C336.128 60.5726 335.966 60.1686 335.805 59.7646C335.562 59.2798 335.643 58.6334 336.047 58.2294L336.855 57.4214C337.178 57.0982 337.178 56.4518 336.855 56.1286L335.239 54.5126C334.916 54.1894 334.269 54.1894 333.946 54.5126L333.138 55.3206C332.734 55.7246 332.169 55.8054 331.684 55.563C331.28 55.4014 330.876 55.159 330.472 55.0782C329.906 54.9166 329.583 54.4318 329.583 53.8662V52.6542C329.583 52.1694 329.179 51.7654 328.694 51.7654H326.351C325.866 51.7654 325.462 52.1694 325.462 52.6542V53.8662C325.462 54.4318 325.058 54.9166 324.573 55.0782C324.17 55.2398 323.766 55.4014 323.362 55.563C322.877 55.8054 322.23 55.7246 321.907 55.3206L321.099 54.5126C320.776 54.1894 320.13 54.1894 319.806 54.5126L318.19 56.1286C317.867 56.4518 317.867 57.0982 318.19 57.4214L318.998 58.2294C319.402 58.6334 319.483 59.199 319.241 59.7646C319.079 60.1686 318.837 60.5726 318.756 60.9766C318.594 61.5422 318.109 61.8654 317.544 61.8654H316.332C315.847 61.8654 315.443 62.2694 315.443 62.7542V65.0974C315.443 65.5822 315.847 65.9862 316.332 65.9862H317.544C318.109 65.9862 318.594 66.3902 318.756 66.875C318.917 67.279 319.079 67.683 319.241 68.087C319.483 68.5718 319.402 69.2182 318.998 69.5414L318.19 70.3494C317.867 70.6726 317.867 71.319 318.19 71.6422L319.806 73.2582C320.13 73.5814 320.776 73.5814 321.099 73.2582L321.907 72.4502C322.311 72.0462 322.877 71.9654 323.362 72.2078C323.766 72.3694 324.17 72.6118 324.573 72.6926C325.139 72.8542 325.462 73.339 325.462 73.9046V75.1166C325.462 75.6014 325.866 76.0054 326.351 76.0054H328.694C329.179 76.0054 329.583 75.6014 329.583 75.1166V74.0662C329.583 73.5006 329.987 73.0158 330.472 72.8542C330.876 72.6926 331.28 72.531 331.684 72.3694C332.169 72.127 332.815 72.2078 333.138 72.6118L333.946 73.4198C334.269 73.743 334.916 73.743 335.239 73.4198L336.855 71.8038C337.178 71.4806 337.178 70.8342 336.855 70.511L336.047 69.703C335.643 69.299 335.562 68.7334 335.805 68.2486C335.966 67.8446 336.209 67.4406 336.289 67.0366C336.451 66.471 336.936 66.1478 337.501 66.1478H338.713C339.198 65.9862 339.602 65.5822 339.602 65.0974ZM327.401 66.3902C326.028 66.3902 324.977 65.259 324.977 63.9662C324.977 62.5926 326.109 61.5422 327.401 61.5422C328.775 61.5422 329.825 62.6734 329.825 63.9662C329.825 65.259 328.775 66.3902 327.401 66.3902Z" fill="#2B56E0"/>
<path d="M72.8816 139.029C72.8816 139.029 49.4496 108.487 0 111.638C0 111.638 26.26 142.988 72.8816 139.029Z" fill="#1D88D8"/>
<path d="M58.5799 118.263C58.5799 118.263 63.6703 80.1259 26.4215 47.321C26.4215 47.321 22.7855 88.0443 58.5799 118.263Z" fill="#7DC4F9"/>
<path d="M54.944 123.192C54.944 123.192 87.9104 105.335 92.516 57.2595C92.516 57.2595 58.2568 77.7019 54.944 123.192Z" fill="#7DC4F9"/>
<path d="M62.4585 120.445C62.4585 120.445 34.9865 103.558 45.0057 95.0738C52.5201 88.6906 37.7337 80.449 43.3089 77.2978C48.9649 74.1466 50.0961 77.0554 48.1569 68.8946C46.1369 60.7338 52.7625 58.4714 55.1865 50.149C57.5297 41.8266 69.3265 44.897 68.4377 57.017C67.5489 69.137 71.1041 56.2898 74.9825 61.3802C78.8609 66.4706 65.9329 86.105 70.8617 84.4082C75.7905 82.7114 79.588 86.509 77.8912 92.4074C73.932 106.143 62.4585 120.445 62.4585 120.445Z" fill="#1D88D8"/>
<path opacity="0.39" d="M63.4281 126.505C63.3473 126.505 63.3473 126.424 63.3473 126.343C61.4889 116.971 59.3073 104.689 58.3377 92.2457V92.1649L58.2569 92.0841C55.4289 89.6601 52.9241 86.7513 50.5809 84.0041C49.7729 83.1153 48.9649 82.1457 48.1569 81.2569C48.0761 81.1761 48.0761 81.1761 48.1569 81.0953C48.2377 81.0145 48.3185 81.0145 48.3993 81.0145C48.3993 81.0145 48.4801 81.0145 48.4801 81.0953C49.2881 81.9841 50.0153 82.8729 50.8233 83.7617C53.0049 86.3473 55.3481 89.0137 57.9337 91.2761L58.3377 91.6801V91.1145C58.0145 85.8625 57.8529 80.4489 58.0145 74.7121V74.5505L57.8529 74.4697C57.8529 74.4697 57.7721 74.4697 57.7721 74.3889C55.5905 71.0761 53.6513 67.5209 52.1161 63.8849C52.1161 63.8041 52.1161 63.8041 52.1161 63.7233C52.1969 63.6425 52.2777 63.6426 52.3585 63.6426L52.4393 63.7233C53.8129 67.1169 55.5905 70.3489 57.5297 73.4193L57.9337 74.0657V73.3385C58.0953 67.8442 58.4185 62.1881 58.9033 56.0473C58.9033 55.9665 58.9033 55.9666 58.9841 55.9666C59.0649 55.9666 59.0649 55.9666 59.1457 55.9666C59.2265 55.9666 59.2265 56.0474 59.2265 56.1282C58.4993 64.5313 58.1761 72.2073 58.1761 79.3985V79.8833L58.5801 79.6409C62.7817 76.6513 66.2561 72.9345 68.9225 68.5713C68.9225 68.4905 69.0033 68.4906 69.0841 68.4906C69.1649 68.4906 69.1649 68.5713 69.1649 68.6521C69.1649 68.7329 69.1649 68.7329 69.1649 68.8137C66.3369 73.3385 62.7009 77.2169 58.3377 80.2065L58.1761 80.2873V80.4489C58.1761 84.4889 58.3377 88.2865 58.5801 92.0033V92.0841V92.1649C58.5801 92.2457 58.5801 92.2457 58.5801 92.3265V92.4073V92.4881C58.8225 95.7201 59.1457 99.1945 59.6305 102.911L59.7113 103.558L60.0345 103.073C63.3473 98.2249 66.9025 93.5385 70.7001 89.0945C70.7809 89.0137 70.7809 89.0137 70.8617 89.0945C70.9425 89.0945 70.9425 89.1753 70.9425 89.2561V89.3369C66.9025 94.0233 63.1857 98.9521 59.7113 104.043L59.6305 104.123V104.204C60.5193 110.83 61.6505 117.94 63.4281 126.667C63.4281 126.747 63.4281 126.747 63.4281 126.747C63.5897 126.586 63.5089 126.586 63.4281 126.505Z" fill="#092B96"/>
<path d="M66.1752 121.576C66.1752 121.576 34.5824 133.696 33.8552 119.879C33.2896 109.537 17.0488 116.647 17.9376 109.941C18.9072 103.235 22.0584 104.123 13.9784 100.568C5.89841 97.0131 8.24161 90.0643 2.82801 82.7923C-2.58559 75.5203 7.43361 67.6019 16.968 76.0859C26.5024 84.4891 18.0992 73.4195 24.8056 73.4195C31.512 73.4195 39.592 96.6899 41.3696 91.5187C43.1472 86.3475 48.6416 85.6203 52.52 90.7915C61.5696 102.831 66.1752 121.576 66.1752 121.576Z" fill="#379CF7"/>
<path opacity="0.39" d="M71.8313 124.646C71.7505 124.646 71.7505 124.646 71.6697 124.646C62.7009 120.202 50.9849 114.223 40.0769 107.032L39.9961 106.951H39.9153C36.1177 107.759 32.0777 108.002 28.2801 108.244C26.9873 108.325 25.7753 108.406 24.4825 108.486C24.4017 108.486 24.4017 108.486 24.3209 108.406C24.3209 108.325 24.3209 108.163 24.4017 108.163H24.4825C25.6945 108.082 26.9873 108.002 28.1993 107.921C31.7545 107.678 35.3905 107.517 38.9457 106.79L39.5113 106.709L39.0265 106.386C34.4209 103.315 29.8961 100.002 25.1289 96.2048L24.9673 96.124L24.8057 96.2048H24.7249C20.5233 95.9624 16.4025 95.2352 12.3625 94.1848C12.2817 94.1848 12.2817 94.104 12.2817 94.104C12.2817 94.0232 12.2817 93.9424 12.3625 93.8616H12.4433C16.1601 94.8312 19.9577 95.4776 23.8361 95.8008L24.6441 95.8816L23.9977 95.3968C19.4729 91.7608 15.0289 87.8824 10.1809 83.5192C10.1001 83.4384 10.1001 83.4384 10.1001 83.4384C10.1001 83.3576 10.1809 83.3576 10.1809 83.2768C10.2617 83.2768 10.3425 83.2768 10.4233 83.2768C16.9681 89.256 23.1089 94.4272 29.1689 99.0328L29.5729 99.356V98.8712C29.7345 93.4576 28.8457 88.2056 26.9873 83.1152C26.9873 83.0344 26.9873 83.0344 27.0681 82.9536C27.1489 82.9536 27.2297 82.9536 27.2297 82.9536C27.3105 82.9536 27.3105 83.0344 27.3105 83.0344C29.2497 88.2864 30.1385 93.7808 29.8961 99.356V99.5176L29.9769 99.5984C33.3705 102.184 36.6025 104.446 39.8345 106.547H39.9153H39.9961C40.0769 106.547 40.0769 106.547 40.1577 106.628V106.709H40.2385C43.0665 108.567 46.1369 110.506 49.6113 112.526L50.1769 112.85L49.9345 112.203C47.9953 106.386 46.3793 100.326 45.1673 94.3464C45.1673 94.2656 45.1673 94.1848 45.2481 94.1848C45.3289 94.1848 45.4097 94.1848 45.4097 94.1848C45.4097 94.1848 45.4905 94.1848 45.4905 94.2656C46.7833 100.568 48.5609 106.87 50.5809 113.011V113.092L50.6617 113.173C56.7217 116.647 63.4281 120.202 71.7505 124.323C71.8313 124.323 71.8313 124.404 71.8313 124.404C71.9929 124.485 71.9121 124.566 71.8313 124.646Z" fill="#092B96"/>
<path d="M295.162 93.5388H47.9952C45.652 93.5388 43.7936 95.3972 43.7936 97.7404L43.3088 218.294C43.3088 220.637 45.1672 222.496 47.5104 222.496L295.243 220.476C297.586 220.476 299.445 218.617 299.445 216.274V97.7404C299.364 95.478 297.506 93.5388 295.162 93.5388Z" fill="white"/>
<path d="M267.125 127.636H71.7505C69.8113 127.636 68.1953 129.171 68.1953 131.191V149.371C68.1953 151.311 69.7305 152.927 71.7505 152.927H267.125C269.064 152.927 270.68 151.391 270.68 149.371V131.191C270.68 129.171 269.064 127.636 267.125 127.636Z" fill="#D8E8EF"/>
<path d="M116.111 127.636H71.8322C69.893 127.636 68.277 129.171 68.277 131.191V149.371C68.277 151.311 69.8122 152.927 71.8322 152.927H116.111C118.05 152.927 119.666 151.311 119.666 149.371V131.272C119.666 129.252 118.05 127.636 116.111 127.636Z" fill="#379CF7"/>
<path d="M99.7881 166.016H74.7401C72.4777 166.016 70.6193 167.875 70.6193 170.137V195.185C70.6193 197.447 72.4777 199.306 74.7401 199.306H99.7881C102.05 199.306 103.909 197.447 103.909 195.185V170.137C103.909 167.875 102.05 166.016 99.7881 166.016Z" fill="#7DC4F9"/>
<path d="M165.802 166.016H140.754C138.491 166.016 136.633 167.875 136.633 170.137V195.185C136.633 197.447 138.491 199.306 140.754 199.306H165.802C168.064 199.306 169.922 197.447 169.922 195.185V170.137C169.922 167.875 168.064 166.016 165.802 166.016Z" fill="#1D88D8"/>
<path d="M108.191 169.572C107.868 169.572 107.706 169.329 107.706 169.087C107.706 168.764 107.949 168.602 108.191 168.602H130.25C130.573 168.602 130.734 168.844 130.734 169.087C130.734 169.41 130.492 169.572 130.25 169.572H108.191Z" fill="#ABD0DD"/>
<path d="M108.191 174.985C107.868 174.985 107.706 174.743 107.706 174.5C107.706 174.258 107.949 174.016 108.191 174.016H130.25C130.573 174.016 130.734 174.258 130.734 174.5C130.734 174.743 130.492 174.985 130.25 174.985H108.191Z" fill="#ABD0DD"/>
<path d="M108.191 180.318C107.868 180.318 107.706 180.076 107.706 179.833C107.706 179.51 107.949 179.349 108.191 179.349H130.25C130.573 179.349 130.734 179.591 130.734 179.833C130.734 180.157 130.492 180.318 130.25 180.318H108.191Z" fill="#ABD0DD"/>
<path d="M108.191 185.732C107.868 185.732 107.706 185.489 107.706 185.247C107.706 184.924 107.949 184.762 108.191 184.762H130.25C130.573 184.762 130.734 185.004 130.734 185.247C130.734 185.57 130.492 185.732 130.25 185.732H108.191Z" fill="#ABD0DD"/>
<path d="M108.191 191.064C107.868 191.064 107.706 190.822 107.706 190.58C107.706 190.337 107.949 190.095 108.191 190.095H130.25C130.573 190.095 130.734 190.337 130.734 190.58C130.734 190.822 130.492 191.064 130.25 191.064H108.191Z" fill="#ABD0DD"/>
<path d="M108.191 196.478C107.868 196.478 107.706 196.236 107.706 195.993C107.706 195.751 107.949 195.509 108.191 195.509H117.645C117.968 195.509 118.13 195.751 118.13 195.993C118.13 196.236 117.887 196.478 117.645 196.478H108.191Z" fill="#ABD0DD"/>
<path d="M175.498 169.572C175.174 169.572 175.013 169.329 175.013 169.087C175.013 168.764 175.255 168.602 175.498 168.602H197.556C197.879 168.602 198.041 168.844 198.041 169.087C198.041 169.41 197.798 169.572 197.556 169.572H175.498Z" fill="#ABD0DD"/>
<path d="M175.498 174.985C175.174 174.985 175.013 174.743 175.013 174.5C175.013 174.258 175.255 174.016 175.498 174.016H197.556C197.879 174.016 198.041 174.258 198.041 174.5C198.041 174.743 197.798 174.985 197.556 174.985H175.498Z" fill="#ABD0DD"/>
<path d="M175.498 180.318C175.174 180.318 175.013 180.076 175.013 179.833C175.013 179.51 175.255 179.349 175.498 179.349H197.556C197.879 179.349 198.041 179.591 198.041 179.833C198.041 180.157 197.798 180.318 197.556 180.318H175.498Z" fill="#ABD0DD"/>
<path d="M175.498 185.732C175.174 185.732 175.013 185.489 175.013 185.247C175.013 184.924 175.255 184.762 175.498 184.762H197.556C197.879 184.762 198.041 185.004 198.041 185.247C198.041 185.57 197.798 185.732 197.556 185.732H175.498Z" fill="#ABD0DD"/>
<path d="M175.498 191.064C175.174 191.064 175.013 190.822 175.013 190.58C175.013 190.337 175.255 190.095 175.498 190.095H197.556C197.879 190.095 198.041 190.337 198.041 190.58C198.041 190.822 197.798 191.064 197.556 191.064H175.498Z" fill="#ABD0DD"/>
<path d="M175.498 196.478C175.174 196.478 175.013 196.236 175.013 195.993C175.013 195.751 175.255 195.509 175.498 195.509H184.951C185.274 195.509 185.436 195.751 185.436 195.993C185.436 196.236 185.194 196.478 184.951 196.478H175.498Z" fill="#ABD0DD"/>
<path d="M233.674 166.016H208.626C206.363 166.016 204.505 167.875 204.505 170.137V195.185C204.505 197.447 206.363 199.306 208.626 199.306H233.674C235.936 199.306 237.794 197.447 237.794 195.185V170.137C237.794 167.875 235.936 166.016 233.674 166.016Z" fill="#092B96"/>
<path d="M243.37 169.572C243.046 169.572 242.885 169.329 242.885 169.087C242.885 168.764 243.127 168.602 243.37 168.602H265.428C265.751 168.602 265.913 168.844 265.913 169.087C265.913 169.41 265.67 169.572 265.428 169.572H243.37Z" fill="#ABD0DD"/>
<path d="M243.37 174.985C243.046 174.985 242.885 174.743 242.885 174.5C242.885 174.258 243.127 174.016 243.37 174.016H265.428C265.751 174.016 265.913 174.258 265.913 174.5C265.913 174.743 265.67 174.985 265.428 174.985H243.37Z" fill="#ABD0DD"/>
<path d="M243.37 180.318C243.046 180.318 242.885 180.076 242.885 179.833C242.885 179.51 243.127 179.349 243.37 179.349H265.428C265.751 179.349 265.913 179.591 265.913 179.833C265.913 180.157 265.67 180.318 265.428 180.318H243.37Z" fill="#ABD0DD"/>
<path d="M243.37 185.732C243.046 185.732 242.885 185.489 242.885 185.247C242.885 184.924 243.127 184.762 243.37 184.762H265.428C265.751 184.762 265.913 185.004 265.913 185.247C265.913 185.57 265.67 185.732 265.428 185.732H243.37Z" fill="#ABD0DD"/>
<path d="M243.37 191.064C243.046 191.064 242.885 190.822 242.885 190.58C242.885 190.337 243.127 190.095 243.37 190.095H265.428C265.751 190.095 265.913 190.337 265.913 190.58C265.913 190.822 265.67 191.064 265.428 191.064H243.37Z" fill="#ABD0DD"/>
<path d="M243.37 196.478C243.046 196.478 242.885 196.236 242.885 195.993C242.885 195.751 243.127 195.509 243.37 195.509H252.823C253.146 195.509 253.308 195.751 253.308 195.993C253.308 196.236 253.066 196.478 252.823 196.478H243.37Z" fill="#ABD0DD"/>
<path fill-rule="evenodd" clip-rule="evenodd" d="M293.627 100.245H287.082C286.759 100.245 286.436 100.568 286.436 100.892C286.436 101.215 286.759 101.538 287.082 101.538H293.627C293.95 101.538 294.274 101.215 294.274 100.892C294.274 100.488 294.031 100.245 293.627 100.245Z" fill="#379CF7"/>
<path fill-rule="evenodd" clip-rule="evenodd" d="M293.627 103.316H287.082C286.759 103.316 286.436 103.639 286.436 103.962C286.436 104.285 286.759 104.608 287.082 104.608H293.627C293.95 104.608 294.274 104.285 294.274 103.962C294.274 103.558 294.031 103.316 293.627 103.316Z" fill="#379CF7"/>
<path fill-rule="evenodd" clip-rule="evenodd" d="M293.627 106.305H287.082C286.759 106.305 286.436 106.628 286.436 106.952C286.436 107.275 286.759 107.598 287.082 107.598H293.627C293.95 107.598 294.274 107.275 294.274 106.952C294.274 106.548 294.031 106.305 293.627 106.305Z" fill="#379CF7"/>
<path d="M59.1455 103.558C59.1455 105.174 57.8527 106.386 56.3175 106.386C54.7015 106.386 53.4895 105.093 53.4895 103.558C53.4895 101.942 54.7823 100.73 56.3175 100.73C57.9335 100.649 59.1455 101.942 59.1455 103.558Z" fill="#379CF7"/>
<path d="M74.6591 103.558C74.6591 105.174 73.3663 106.386 71.8311 106.386C70.2151 106.386 69.0031 105.093 69.0031 103.558C69.0031 101.942 70.2959 100.73 71.8311 100.73C73.3663 100.649 74.6591 101.942 74.6591 103.558Z" fill="#092B96"/>
<path d="M90.496 103.558C90.496 105.174 89.2032 106.386 87.668 106.386C86.052 106.386 84.84 105.093 84.84 103.558C84.84 101.942 86.1328 100.73 87.668 100.73C89.2032 100.649 90.496 101.942 90.496 103.558Z" fill="#1D88D8"/>
<path d="M161.842 185.974L154.57 175.551C153.762 174.419 152.066 174.419 151.338 175.551L144.066 185.974C143.097 187.267 144.066 189.125 145.682 189.125H160.307C161.842 189.125 162.812 187.267 161.842 185.974Z" fill="#092B96"/>
<path d="M220.988 192.438C225.718 192.438 229.553 188.603 229.553 183.873C229.553 179.143 225.718 175.308 220.988 175.308C216.258 175.308 212.423 179.143 212.423 183.873C212.423 188.603 216.258 192.438 220.988 192.438Z" fill="#1D88D8"/>
<path d="M346.955 225.324C346.955 220.799 271.811 217.163 179.134 217.163C86.456 217.163 11.312 220.799 11.312 225.324C11.312 229.848 86.456 233.484 179.134 233.484C271.811 233.484 346.955 229.848 346.955 225.324Z" fill="#CCF2FF"/>
<path fill-rule="evenodd" clip-rule="evenodd" d="M157.56 71.642C157.237 69.7028 156.267 65.4204 152.631 66.9556C145.521 64.2084 142.37 67.6828 141.885 72.2884C141.238 78.106 138.006 80.3684 139.218 82.0652C140.754 84.166 145.359 87.1556 150.207 87.3172C155.217 87.398 159.58 83.358 160.954 81.1764C161.842 79.318 158.368 77.3788 157.56 71.642Z" fill="#092B96"/>
<path fill-rule="evenodd" clip-rule="evenodd" d="M181.558 100.407C179.053 95.8012 169.034 85.2972 167.902 84.8932C164.751 83.8428 159.822 83.358 156.914 83.1156C154.974 82.7924 149.642 82.8732 149.642 82.8732H147.541C144.794 82.8732 137.118 83.1964 131.785 85.0548C130.654 85.4588 120.392 95.7204 117.806 100.326C117.241 101.376 117.16 102.75 117.645 103.881L128.553 125.616L133.966 124.485L129.684 105.659C129.361 104.204 129.846 102.669 130.896 101.7L137.764 93.5388H147.541H161.438L168.387 101.7C169.438 102.669 169.922 104.204 169.599 105.659L165.317 124.485L170.811 125.293L181.558 103.881C182.204 102.831 182.123 101.538 181.558 100.407Z" fill="#379CF7"/>
<path fill-rule="evenodd" clip-rule="evenodd" d="M133.482 124.728L135.825 126.748C136.148 126.99 135.986 127.556 135.582 127.556L134.613 127.637L135.259 129.414C135.906 131.273 132.108 134.02 130.573 130.384L128.957 125.617L133.482 124.728Z" fill="#FFA683"/>
<path fill-rule="evenodd" clip-rule="evenodd" d="M165.963 124.647L163.539 126.667C163.216 126.909 163.378 127.475 163.782 127.475L164.751 127.556L164.105 129.333C163.458 131.192 167.256 133.939 168.791 130.303L170.488 125.213L165.963 124.647Z" fill="#FFA683"/>
<path fill-rule="evenodd" clip-rule="evenodd" d="M155.863 74.1468L155.944 78.51C155.944 80.126 155.378 81.742 154.166 82.8732C154.005 83.0348 153.762 83.2773 153.601 83.4389C151.581 85.3781 148.349 85.4589 146.329 83.6005L145.763 83.0349C144.551 81.9845 143.824 80.3685 143.824 78.7524L143.743 74.3084C143.743 74.3084 149.965 74.2276 152.308 71.3188C152.227 71.3996 153.439 73.662 155.863 74.1468Z" fill="#FFA683"/>
<path fill-rule="evenodd" clip-rule="evenodd" d="M155.863 74.1468L155.944 78.51C155.944 80.126 155.378 81.742 154.166 82.8732C154.005 83.0348 153.762 83.2773 153.601 83.4389C151.581 85.3781 148.349 85.4589 146.329 83.6005L145.763 83.0349C144.551 81.9845 143.824 80.3685 143.824 78.7524L143.743 74.3084C143.743 74.3084 149.884 74.2276 152.227 71.3188C152.146 71.3996 153.439 73.662 155.863 74.1468Z" fill="#FFA683"/>
<path fill-rule="evenodd" clip-rule="evenodd" d="M145.278 79.6411C146.41 77.7019 144.39 75.7627 142.531 76.9747C142.37 77.0555 142.289 77.2171 142.208 77.3787C141.077 79.3179 143.097 81.2571 144.955 80.0451C145.117 79.8835 145.198 79.8027 145.278 79.6411Z" fill="#FFA683"/>
<path fill-rule="evenodd" clip-rule="evenodd" d="M157.398 79.3989C158.53 77.5405 156.59 75.6013 154.813 76.6517C154.57 76.8133 154.409 76.9749 154.247 77.2173C153.278 79.0757 155.298 80.9341 157.075 79.7221C157.237 79.6413 157.318 79.5605 157.398 79.3989Z" fill="#FFA683"/>
<path fill-rule="evenodd" clip-rule="evenodd" d="M153.358 83.9236C153.358 81.9844 151.823 80.4492 149.884 80.4492C147.945 80.4492 146.409 81.9844 146.409 83.9236C146.409 85.8628 147.945 87.802 149.884 87.802C151.823 87.802 153.358 85.782 153.358 83.9236Z" fill="#FFA683"/>
<path fill-rule="evenodd" clip-rule="evenodd" d="M146.49 83.7622C146.49 83.843 146.49 83.843 146.49 83.9238C146.49 84.0854 148.268 85.863 150.046 85.863C151.742 85.863 153.439 84.0854 153.439 83.9238C153.439 83.843 153.439 83.7622 153.439 83.7622C151.338 85.3782 148.43 85.3782 146.49 83.7622Z" fill="#EF7F5E"/>
<path d="M133.966 124.566L129.684 105.739C129.361 104.285 129.846 102.75 130.896 101.78L137.764 93.6195C137.764 93.6195 139.299 91.0339 138.491 91.3571C137.764 91.6803 127.502 100.487 126.614 102.588C125.886 104.204 129.926 118.344 131.866 124.889L133.966 124.566Z" fill="#1D88D8"/>
<path d="M167.902 84.9741C167.741 84.8933 167.498 84.8125 167.337 84.8125C169.276 87.1557 181.315 101.376 179.941 104.366C178.729 107.032 171.296 120.607 168.953 125.132L170.811 125.374L181.557 103.962C182.042 102.831 182.042 101.538 181.396 100.407C179.053 95.8013 169.033 85.3781 167.902 84.9741Z" fill="#1D88D8"/>
<path d="M68.1951 190.741L68.8415 192.438L77.9719 191.468C77.9719 191.468 88.0719 204.316 92.2735 208.76C92.6775 209.244 93.1623 209.729 93.7279 210.376C96.3943 203.912 101.808 183.55 96.3135 181.934C88.1527 179.51 68.1951 190.741 68.1951 190.741Z" fill="#092B96"/>
<path d="M86.6176 202.215C88.7992 204.8 90.9 207.305 92.3544 208.84C92.7584 209.325 93.2431 209.81 93.8087 210.456C95.5055 206.416 98.1719 197.044 98.6567 190.095C96.7983 190.337 90.5768 197.367 86.6176 202.215Z" fill="#052575"/>
<path d="M77.9719 191.549C77.9719 191.549 88.0719 204.396 92.2735 208.84C96.4751 213.203 106.01 226.212 80.3151 225.243C54.5399 224.273 42.9047 220.314 42.9047 220.314L42.3391 214.739L69.2455 211.911C69.2455 211.911 52.4391 209.972 54.4591 194.054L77.9719 191.549Z" fill="#173ACC"/>
<path d="M78.4569 193.488L78.9417 192.68C81.5273 195.993 88.8801 205.204 92.2737 208.76C93.8897 210.456 96.3945 213.527 97.2025 216.516C95.2633 211.911 89.2033 207.628 84.0321 202.619C77.4065 196.155 78.4569 193.488 78.4569 193.488Z" fill="#2B56E0"/>
<path d="M37.6527 215.789C37.6527 215.789 37.5719 215.789 37.4103 215.789C36.5215 215.87 33.9359 216.031 33.4511 217.163C32.8855 218.455 32.6431 225.081 37.0063 225.324C41.3696 225.485 36.1983 222.091 37.6527 220.637V215.789Z" fill="#092B96"/>
<path d="M42.3391 214.577L69.2455 211.749C69.2455 211.749 72.1543 213.042 81.2039 216.597C86.6983 218.779 92.4351 220.96 95.5863 222.415C93.3239 224.273 88.6375 225.404 80.2343 225.081C54.4591 224.111 42.8239 220.152 42.8239 220.152L42.3391 214.577Z" fill="#092B96"/>
<path d="M42.9048 220.152C42.9048 220.152 39.6728 218.779 37.8952 220.637C35.3904 223.304 37.7336 215.708 37.7336 215.708L42.42 214.577L42.9048 220.152Z" fill="#FFA683"/>
<path d="M103.666 148.725L95.8288 142.261C95.5864 142.019 95.5056 141.695 95.6672 141.372C97.0408 138.544 96.2328 135.07 93.4856 133.131C90.9808 131.353 87.5064 131.676 85.244 133.777C84.84 134.181 84.436 134.666 84.1128 135.151C82.4968 137.898 83.0624 141.453 85.5672 143.554C87.9104 145.493 91.304 145.493 93.6472 143.796C93.728 143.715 93.8088 143.715 93.8896 143.715C94.132 143.635 94.3744 143.715 94.536 143.877L102.374 150.341C102.616 150.503 102.858 150.583 103.101 150.583C103.343 150.583 103.586 150.422 103.747 150.26C104.151 149.695 104.151 149.048 103.666 148.725ZM93.4856 141.534C91.7888 143.554 88.7992 143.877 86.7792 142.18C84.7592 140.483 84.436 137.494 86.1328 135.474C87.8296 133.454 90.8192 133.131 92.8392 134.827C94.94 136.524 95.1824 139.514 93.4856 141.534Z" fill="white"/>
<path d="M92.8391 134.827C90.8191 133.131 87.8295 133.373 86.1327 135.474C84.4359 137.494 84.6783 140.483 86.7791 142.18C88.7991 143.877 91.7887 143.635 93.4855 141.534C95.1823 139.514 94.9399 136.524 92.8391 134.827Z" fill="#379CF7"/>
<path d="M99.5456 144.847C98.8184 144.766 98.0912 145.332 97.364 145.978C97.2024 145.332 96.7984 144.362 96.4752 144.2C95.9096 143.958 95.2632 148.483 95.2632 148.483L95.6672 148.16C95.5864 148.24 95.5864 148.321 95.5864 148.321L99.384 150.26C101.808 146.948 101.242 145.089 99.5456 144.847Z" fill="#FFA683"/>
<path d="M54.5401 179.348C55.2673 171.511 56.3985 163.108 57.8529 160.845C58.5801 159.714 59.2265 158.906 60.0345 158.421C60.0345 158.421 52.9241 162.946 50.0153 169.895C48.6417 173.288 51.3889 176.682 54.5401 179.348Z" fill="#379CF7"/>
<path d="M73.851 158.098L73.6086 155.028C74.5782 154.866 75.467 154.462 76.1942 153.654C78.1334 151.634 78.0526 147.917 76.3558 145.736C74.7398 146.22 72.7198 145.897 72.639 146.786C72.5582 148.16 72.3966 149.291 72.3966 149.291C71.1038 148.483 69.6494 148.564 69.8918 150.341C69.9726 151.068 70.4574 152.2 71.023 152.28C71.023 152.28 71.427 155.27 68.4374 156.482V157.532L73.851 158.098Z" fill="#FFA683"/>
<path d="M63.2663 147.675C64.5591 142.342 66.6599 139.272 72.3967 139.191C77.6487 139.029 78.2951 143.392 78.2951 143.392C78.1335 147.109 72.8007 145.332 72.7199 146.786C72.6391 148.16 72.4775 149.291 72.4775 149.291C71.1847 148.483 69.7303 148.564 69.9727 150.341C70.0535 151.068 70.5383 152.2 71.1039 152.28C71.1039 152.28 71.5079 155.27 68.5183 156.482C68.4375 156.482 61.9735 153.008 63.2663 147.675Z" fill="#092B96"/>
<path d="M63.2663 147.675C64.5591 142.342 66.6599 139.272 72.3967 139.191C75.8711 139.11 77.3255 140.969 77.8911 142.262C75.3863 139.838 69.8111 138.383 66.3367 143.958C63.3471 148.806 65.2055 154.624 70.7807 153.978C70.4575 154.866 69.8111 155.836 68.4375 156.402C68.4375 156.482 61.9735 153.008 63.2663 147.675Z" fill="#09256B"/>
<path d="M72.3968 155.997C71.912 155.674 71.3464 154.139 71.3464 154.139C71.912 154.785 73.6088 155.028 73.6088 155.028L73.8512 158.098L72.6392 157.937C72.6392 156.967 72.6392 156.078 72.3968 155.997Z" fill="#EF7F5E"/>
<path d="M53.3279 194.619C53.3279 194.619 54.9439 165.37 57.8527 160.845C59.0647 158.987 60.1151 158.017 61.9735 157.613C63.1047 157.371 67.3063 157.209 68.4375 157.371C70.9423 157.613 77.3255 158.421 78.8607 159.067C80.9615 159.956 89.4455 167.309 89.4455 167.309L95.1015 147.917L99.7879 149.695C99.7879 149.695 95.1823 178.055 91.5463 178.055C87.9103 178.136 78.5375 172.884 78.5375 172.884C78.5375 172.884 77.8103 190.66 81.2847 193.973C81.3655 193.973 66.7407 200.679 53.3279 194.619Z" fill="#379CF7"/>
<path d="M57.9336 160.037C59.2264 158.987 60.1152 158.421 60.1152 158.421C59.3072 158.987 58.6608 159.714 57.9336 160.845C56.4792 163.108 55.348 171.511 54.6208 179.348C53.8128 178.702 53.0856 177.975 52.4392 177.248C52.6816 172.642 53.8936 164.4 57.9336 160.037Z" fill="#147AC6"/>
<path d="M73.3663 170.703C72.8815 169.733 78.6183 172.884 78.6183 172.884C78.6183 172.884 77.8911 190.66 81.3655 193.973C81.3655 193.973 80.3151 194.458 78.6183 195.023C76.5983 189.044 77.0831 181.045 76.6791 178.217C76.1943 174.419 73.8511 171.753 73.3663 170.703Z" fill="#63B8F7"/>
<path d="M267.852 221.768C267.852 222.011 267.852 222.334 267.771 222.657C267.69 223.627 266.64 224.192 266.398 224.354C266.559 224.354 266.64 224.354 266.721 224.435C268.498 225.162 269.468 225.404 271.165 224.677C271.326 224.596 271.407 224.596 271.569 224.677C271.488 223.869 271.326 222.657 271.246 221.768H267.852Z" fill="#FFA683"/>
<path d="M271.973 227.263C271.973 226.535 271.973 225.727 271.973 225.162C271.973 224.758 271.569 224.515 271.246 224.677C269.549 225.404 268.579 225.243 266.802 224.435C265.428 223.869 261.146 226.293 260.095 226.94C259.53 227.344 259.853 228.152 260.499 228.152H271.084C271.488 228.232 271.892 227.828 271.973 227.263Z" fill="#2B56E0"/>
<path d="M285.305 221.122C285.305 221.364 285.305 221.687 285.224 222.011C285.143 222.98 284.093 223.546 283.85 223.707C284.012 223.707 284.093 223.707 284.174 223.788C285.951 224.515 286.921 224.758 288.617 224.031C288.779 223.95 288.86 223.95 289.021 224.031C288.941 223.223 288.779 222.011 288.698 221.122H285.305Z" fill="#FFA683"/>
<path d="M289.426 226.616C289.426 225.889 289.426 225.081 289.426 224.515C289.426 224.111 289.022 223.869 288.698 224.031C287.002 224.758 286.032 224.596 284.254 223.788C282.881 223.223 278.598 225.647 277.548 226.293C276.982 226.697 277.306 227.505 277.952 227.505H288.537C288.941 227.586 289.426 227.101 289.426 226.616Z" fill="#2B56E0"/>
<path d="M286.194 160.199C286.194 161.653 287.244 165.693 287.244 170.218C287.244 178.864 282.881 190.418 282.881 190.418L290.234 221.607L284.012 221.768L270.276 191.307L271.246 158.664L286.194 160.199Z" fill="#092B96"/>
<path d="M281.184 158.421C281.184 158.421 280.215 168.602 278.114 176.035C276.417 182.257 263.893 191.791 263.893 191.791L272.054 222.091H266.963L248.783 192.599C248.299 191.307 248.379 189.933 248.945 188.721L266.236 155.674L281.184 158.421Z" fill="#2B56E0"/>
<path d="M238.441 153.008H231.896C231.896 153.008 232.219 156.886 239.006 156.886L238.441 153.008Z" fill="#FFA683"/>
<path d="M273.427 119.96C273.508 119.637 273.589 118.748 273.508 118.263C273.346 116.243 272.134 115.92 270.68 117.132C270.68 117.132 269.387 116.324 268.741 114.789C268.337 113.9 266.559 114.547 265.266 114.304C264.135 117.132 265.186 121.091 267.61 122.869C268.579 123.596 269.549 123.677 270.761 123.677L271.084 128.687L277.144 127.071L277.063 124.081C274.801 124.162 273.104 122.142 273.427 119.96Z" fill="#FFA683"/>
<path opacity="0.4" d="M268.66 222.172C267.367 219.991 251.45 192.842 253.793 189.529C256.217 186.055 267.125 164.643 267.125 164.643L264.539 161.33C264.539 161.33 263.731 161.976 262.519 163.027L249.026 188.802C248.46 190.014 248.379 191.388 248.864 192.68L267.044 222.172H268.66Z" fill="#092B96"/>
<path d="M266.559 134.019C266.882 127.798 276.578 127.313 277.548 127.313C278.921 127.313 280.214 128.04 281.103 129.01C282.638 130.707 285.628 134.504 284.658 139.756C282.234 153.331 287.244 162.057 287.89 166.259C278.922 169.895 259.933 165.37 259.933 165.37L265.751 143.311L266.559 134.019Z" fill="#379CF7"/>
<path d="M259.368 148.887C259.368 148.887 265.266 127.475 272.781 128.687C281.103 130.06 267.367 156.644 267.367 156.644L238.926 157.209L238.36 152.684L259.368 148.887Z" fill="#379CF7"/>
<path d="M271.73 155.916C270.357 160.118 265.67 159.795 265.67 159.795L263.085 166.178C261.145 165.774 259.933 165.532 259.933 165.532L262.196 156.805L267.367 156.724C267.367 156.724 276.902 138.221 275.286 131.272C275.609 131.757 277.871 137.332 271.73 155.916Z" fill="#147AC6"/>
<path d="M279.73 141.615C270.115 141.13 273.347 122.384 273.427 118.748C273.508 116.728 272.054 115.84 270.68 117.052C270.68 117.052 269.387 116.244 268.741 114.708C268.337 113.739 266.155 114.466 264.863 114.224C267.61 103.154 280.619 103.639 286.355 118.668C291.365 131.676 295.163 142.423 279.73 141.615Z" fill="#092B96"/>
<path d="M271.569 124.727C271.811 124.485 272.862 122.465 272.862 122.465C272.377 122.95 271.407 123.435 271.003 123.596C270.842 123.677 270.761 123.677 270.761 123.677L271.084 128.687L271.73 128.525C271.65 126.99 271.407 124.808 271.569 124.727Z" fill="#EF7F5E"/>
<path d="M264.701 139.352C265.994 133.454 269.872 129.737 270.842 128.848C264.297 131.03 259.368 148.887 259.368 148.887L238.36 152.684L261.873 151.311C261.873 151.23 263.327 146.059 264.701 139.352Z" fill="#63B8F7"/>
<path d="M275.366 109.456C282.396 112.608 286.355 124 284.497 141.453C294.274 139.837 290.799 130.141 286.436 118.748C280.699 103.72 267.69 103.235 264.943 114.304C264.862 114.224 268.337 106.305 275.366 109.456Z" fill="#052575"/>
<path d="M335.805 163.431C335.32 165.936 327.24 180.237 322.23 189.772C318.271 197.286 319.16 204.396 319.726 207.144H320.695C320.13 203.831 319.887 204.316 320.695 199.144C321.584 193.488 330.472 189.529 336.047 178.621C341.542 167.794 336.209 161.007 335.805 163.431Z" fill="#379CF7"/>
<path d="M317.14 201.326C317.382 204.073 317.625 205.932 317.786 207.224H318.271C318.433 202.619 318.756 194.7 318.514 189.368C318.271 181.53 320.372 178.298 321.584 165.128C322.796 151.957 319.402 133.212 319.402 133.212C319.402 133.212 311.161 150.018 314.07 168.602C316.898 187.267 315.847 189.368 317.14 201.326Z" fill="#379CF7"/>
<path d="M314.797 198.66C314.878 201.649 315.363 205.204 315.686 207.144H316.171C316.09 205.77 316.009 203.265 315.847 198.821C315.524 185.328 314.151 185.489 311.807 176.44C309.464 167.39 305.667 163.673 301.788 159.068C301.788 159.068 297.748 165.532 303.485 175.228C309.141 184.924 311.403 185.57 312.777 190.337C314.151 195.104 314.716 194.458 314.797 198.66Z" fill="#379CF7"/>
<path d="M313.423 207.224H313.989C314.231 205.366 314.312 202.619 312.777 200.033C310.191 195.67 308.171 189.852 304.131 185.974C298.637 180.722 294.839 167.632 294.839 167.632C294.839 167.632 291.93 179.268 297.506 188.479C303.081 197.69 307.686 199.468 310.191 200.922C312.938 202.538 313.504 205.204 313.423 207.224Z" fill="#379CF7"/>
<path d="M317.706 207.224H317.787L318.191 205.447C318.352 200.76 318.514 194.054 318.352 189.368C318.11 181.53 320.211 178.298 321.423 165.128C322.635 151.957 319.241 133.212 319.241 133.212C319.241 133.212 316.09 159.229 316.979 171.188C317.867 182.176 317.787 203.992 317.706 207.224Z" fill="#1D88D8"/>
<path d="M336.047 162.946C336.128 166.42 335.886 178.379 328.775 184.762C320.614 192.115 318.029 200.275 320.453 207.143H320.534C319.968 203.831 319.726 204.315 320.534 199.144C321.422 193.488 330.31 189.529 335.886 178.621C340.895 169.006 337.259 162.542 336.047 162.946Z" fill="#1D88D8"/>
<path d="M315.928 207.224H316.17C316.09 205.851 316.009 203.346 315.847 198.902C315.524 185.408 314.15 185.57 311.807 176.52C309.464 167.471 305.666 163.754 301.788 159.148C301.788 159.148 301.626 168.117 307.444 176.763C313.262 185.408 314.878 191.792 315.039 194.135C315.201 196.074 315.686 204.316 315.928 207.224Z" fill="#1D88D8"/>
<path d="M313.585 207.224H314.07C314.312 205.366 314.393 202.619 312.858 200.033C310.272 195.67 308.252 189.852 304.212 185.974C298.718 180.722 294.92 167.632 294.92 167.632C294.92 167.632 295.082 182.419 299.445 186.782C303.727 191.064 303.646 189.852 306.959 194.135C310.272 198.417 311.322 199.629 312.615 202.215C313.423 203.831 313.585 205.932 313.585 207.224Z" fill="#1D88D8"/>
<path d="M324.17 204.8H309.06C307.525 204.8 306.394 206.174 306.636 207.709L309.626 223.223C309.868 224.354 310.838 225.243 312.05 225.243H321.261C322.473 225.243 323.442 224.435 323.685 223.223L326.674 207.709C326.917 206.174 325.705 204.8 324.17 204.8Z" fill="#D8E8EF"/>
<path d="M326.594 206.659C326.351 205.608 325.382 204.8 324.17 204.8H309.06C307.848 204.8 306.959 205.608 306.636 206.659H326.594Z" fill="#ABD0DD"/>
<path d="M324.17 204.8H320.776C322.311 204.8 323.442 206.174 323.2 207.709L320.21 223.223C319.968 224.354 318.998 225.243 317.786 225.243H321.18C322.392 225.243 323.362 224.435 323.604 223.223L326.594 207.709C326.917 206.174 325.705 204.8 324.17 204.8Z" fill="#ABD0DD"/>
<defs>
<linearGradient id="paint0_linear" x1="199.85" y1="58.6106" x2="248.976" y2="45.8868" gradientUnits="userSpaceOnUse">
<stop stop-color="white"/>
<stop offset="1" stop-color="white" stop-opacity="0"/>
</linearGradient>
<linearGradient id="paint1_linear" x1="203.082" y1="71.0866" x2="252.208" y2="58.3627" gradientUnits="userSpaceOnUse">
<stop stop-color="white"/>
<stop offset="1" stop-color="white" stop-opacity="0"/>
</linearGradient>
</defs>
</svg>
